<svg width="385" height="350" viewBox="0 0 385 350" fill="none" xmlns="http://www.w3.org/2000/svg">
<path d="M270.088 49.0194C293.239 64.2955 314.424 81.3175 337.794 103.141C360.945 124.964 386.499 151.806 383.223 176.684C380.165 201.562 348.278 224.477 327.966 251.537C307.654 278.598 298.917 309.368 278.824 323.335C258.949 337.084 227.717 333.81 199.979 327.918C172.241 322.026 147.779 313.515 118.95 304.785C90.1199 296.056 56.7035 287.109 33.7707 265.94C10.8379 244.99 -1.82972 211.601 4.72251 182.14C11.2747 152.679 37.0468 127.146 58.4508 103.359C80.0731 79.5716 97.1089 57.7486 119.386 42.036C141.664 26.1052 168.965 16.2848 195.392 18.2489C221.82 20.213 246.936 33.7433 270.088 49.0194Z" fill="#736AFF"/>
</svg>
